<?xml version="1.0" encoding="utf-8"?>
<!-- Generator: Adobe Illustrator 21.0.2, SVG Export Plug-In . SVG Version: 6.00 Build 0)  -->
<svg version="1.1" id="Layer_1" xmlns="http://www.w3.org/2000/svg" xmlns:xlink="http://www.w3.org/1999/xlink" x="0px" y="0px"
	 width="115px" height="15px" viewBox="0 0 115 15" style="enable-background:new 0 0 115 15;" xml:space="preserve">
<polyline style="fill-rule:evenodd;clip-rule:evenodd;fill:#1A1919;" points="11.6,14.4 11.6,4.4 7.9,14.2 6.1,14.2 2.5,4.3 
	2.5,14.4 0,14.4 0,0.4 3.4,0.4 7.1,10.4 10.8,0.4 14,0.4 14,14.4 11.6,14.4 "/>
<path style="fill-rule:evenodd;clip-rule:evenodd;fill:#1A1919;" d="M25.6,13.1c-0.7,0.9-2,1.6-3.6,1.6c-1.6,0-2.9-0.7-3.6-1.6
	c-0.8-1-1.2-2-1.2-3.8c0-1.7,0.4-2.8,1.2-3.8c0.7-0.9,2-1.6,3.6-1.6c1.6,0,2.9,0.7,3.6,1.6c0.8,1,1.2,2,1.2,3.8
	C26.8,11,26.3,12.1,25.6,13.1z M23.5,6.7C23.2,6.3,22.6,6,22,6c-0.7,0-1.2,0.3-1.6,0.6c-0.6,0.6-0.7,1.6-0.7,2.6s0.1,1.9,0.7,2.6
	c0.3,0.4,0.9,0.6,1.6,0.6c0.7,0,1.2-0.3,1.6-0.6c0.6-0.6,0.7-1.6,0.7-2.6S24.1,7.3,23.5,6.7z"/>
<path style="fill-rule:evenodd;clip-rule:evenodd;fill:#1A1919;" d="M37.8,13.1c-0.7,0.9-2,1.6-3.6,1.6s-2.9-0.7-3.6-1.6
	c-0.8-1-1.2-2-1.2-3.8c0-1.7,0.4-2.8,1.2-3.8c0.7-0.9,2-1.6,3.6-1.6s2.9,0.7,3.6,1.6c0.8,1,1.2,2,1.2,3.8C39,11,38.6,12.1,37.8,13.1
	z M35.8,6.7C35.5,6.3,34.9,6,34.2,6c-0.7,0-1.2,0.3-1.6,0.6C32.1,7.3,32,8.3,32,9.3s0.1,1.9,0.7,2.6c0.3,0.4,0.9,0.6,1.6,0.6
	c0.7,0,1.2-0.3,1.6-0.6c0.6-0.6,0.7-1.6,0.7-2.6S36.4,7.3,35.8,6.7z"/>
<path style="fill-rule:evenodd;clip-rule:evenodd;fill:#1A1919;" d="M48.4,14.4V8.1c0-1.2-0.4-1.9-1.7-1.9c-0.9,0-1.4,0.6-1.8,1.3
	c-0.4,0.8-0.3,1.9-0.3,2.7v4.2h-2.5V4.2h2.1l0.2,1.3c0.6-1.1,1.8-1.6,3-1.6c2.2,0,3.5,1.5,3.5,3.7v6.8H48.4"/>
<path style="fill-rule:evenodd;clip-rule:evenodd;fill:#1A1919;" d="M85.1,9.3L85.1,9.3c-0.4,3.6-2.9,5.3-6.2,5.3
	c-3.1,0-6.4-2.2-6.4-7.3C72.5,2.2,75.9,0,79,0c3.2,0,5.8,1.8,6.2,5.3l-2.4,0c-0.6-2.3-2-2.9-3.8-2.9c-1.9,0-3.9,1.6-3.9,4.9
	c0,3.3,2,4.9,3.9,4.9c1.8,0,3.1-0.6,3.8-2.9H85.1"/>
<path style="fill-rule:evenodd;clip-rule:evenodd;fill:#1A1919;" d="M108.2,13.1c-0.7,0.9-2,1.6-3.6,1.6c-1.6,0-2.9-0.7-3.6-1.6
	c-0.8-1-1.2-2-1.2-3.8c0-1.7,0.4-2.8,1.2-3.8c0.7-0.9,2-1.6,3.6-1.6c1.6,0,2.9,0.7,3.6,1.6c0.8,1,1.2,2,1.2,3.8
	C109.4,11,109,12.1,108.2,13.1z M106.2,6.7c-0.3-0.4-0.9-0.6-1.6-0.6c-0.7,0-1.2,0.3-1.6,0.6c-0.6,0.6-0.7,1.6-0.7,2.6
	s0.1,1.9,0.7,2.6c0.3,0.4,0.9,0.6,1.6,0.6c0.7,0,1.2-0.3,1.6-0.6c0.6-0.6,0.7-1.6,0.7-2.6S106.8,7.3,106.2,6.7z"/>
<polyline style="fill-rule:evenodd;clip-rule:evenodd;fill:#1A1919;" points="11.6,14.4 11.6,4.4 7.9,14.2 6.1,14.2 2.5,4.3 
	2.5,14.4 0,14.4 0,0.4 3.4,0.4 7.1,10.4 10.8,0.4 14,0.4 14,14.4 11.6,14.4 "/>
<path style="fill-rule:evenodd;clip-rule:evenodd;fill:#1A1919;" d="M25.6,13.1c-0.7,0.9-2,1.6-3.6,1.6c-1.6,0-2.9-0.7-3.6-1.6
	c-0.8-1-1.2-2-1.2-3.8c0-1.7,0.4-2.8,1.2-3.8c0.7-0.9,2-1.6,3.6-1.6c1.6,0,2.9,0.7,3.6,1.6c0.8,1,1.2,2,1.2,3.8
	C26.8,11,26.3,12.1,25.6,13.1z M23.5,6.7C23.2,6.3,22.6,6,22,6c-0.7,0-1.2,0.3-1.6,0.6c-0.6,0.6-0.7,1.6-0.7,2.6s0.1,1.9,0.7,2.6
	c0.3,0.4,0.9,0.6,1.6,0.6c0.7,0,1.2-0.3,1.6-0.6c0.6-0.6,0.7-1.6,0.7-2.6S24.1,7.3,23.5,6.7z"/>
<path style="fill-rule:evenodd;clip-rule:evenodd;fill:#1A1919;" d="M37.8,13.1c-0.7,0.9-2,1.6-3.6,1.6s-2.9-0.7-3.6-1.6
	c-0.8-1-1.2-2-1.2-3.8c0-1.7,0.4-2.8,1.2-3.8c0.7-0.9,2-1.6,3.6-1.6s2.9,0.7,3.6,1.6c0.8,1,1.2,2,1.2,3.8C39,11,38.6,12.1,37.8,13.1
	z M35.8,6.7C35.5,6.3,34.9,6,34.2,6c-0.7,0-1.2,0.3-1.6,0.6C32.1,7.3,32,8.3,32,9.3s0.1,1.9,0.7,2.6c0.3,0.4,0.9,0.6,1.6,0.6
	c0.7,0,1.2-0.3,1.6-0.6c0.6-0.6,0.7-1.6,0.7-2.6S36.4,7.3,35.8,6.7z"/>
<path style="fill-rule:evenodd;clip-rule:evenodd;fill:#1A1919;" d="M48.4,14.4V8.1c0-1.2-0.4-1.9-1.7-1.9c-0.9,0-1.4,0.6-1.8,1.3
	c-0.4,0.8-0.3,1.9-0.3,2.7v4.2h-2.5V4.2h2.1l0.2,1.3c0.6-1.1,1.8-1.6,3-1.6c2.2,0,3.5,1.5,3.5,3.7v6.8H48.4"/>
<path style="fill-rule:evenodd;clip-rule:evenodd;fill:#1A1919;" d="M85.1,9.3L85.1,9.3c-0.4,3.6-2.9,5.3-6.2,5.3
	c-3.1,0-6.4-2.2-6.4-7.3C72.5,2.2,75.9,0,79,0c3.2,0,5.8,1.8,6.2,5.3l-2.4,0c-0.6-2.3-2-2.9-3.8-2.9c-1.9,0-3.9,1.6-3.9,4.9
	c0,3.3,2,4.9,3.9,4.9c1.8,0,3.1-0.6,3.8-2.9H85.1"/>
<path style="fill-rule:evenodd;clip-rule:evenodd;fill:#1A1919;" d="M108.2,13.1c-0.7,0.9-2,1.6-3.6,1.6c-1.6,0-2.9-0.7-3.6-1.6
	c-0.8-1-1.2-2-1.2-3.8c0-1.7,0.4-2.8,1.2-3.8c0.7-0.9,2-1.6,3.6-1.6c1.6,0,2.9,0.7,3.6,1.6c0.8,1,1.2,2,1.2,3.8
	C109.4,11,109,12.1,108.2,13.1z M106.2,6.7c-0.3-0.4-0.9-0.6-1.6-0.6c-0.7,0-1.2,0.3-1.6,0.6c-0.6,0.6-0.7,1.6-0.7,2.6
	s0.1,1.9,0.7,2.6c0.3,0.4,0.9,0.6,1.6,0.6c0.7,0,1.2-0.3,1.6-0.6c0.6-0.6,0.7-1.6,0.7-2.6S106.8,7.3,106.2,6.7z"/>
<path style="fill-rule:evenodd;clip-rule:evenodd;fill:#1A1919;" d="M112.4,2.7h2.6V0.2h-2.6V2.7z M112.4,14.4h2.5V4.2h-2.5V14.4z"
	/>
<path style="fill-rule:evenodd;clip-rule:evenodd;fill:#1A1919;" d="M94.2,14.4V8.1c0-1.2-0.4-1.9-1.7-1.9c-1.5,0-2.1,1.6-2.1,2.8
	v5.4h-2.5V0.2h2.5v5.1c0.6-0.9,1.7-1.3,2.8-1.3c2.2,0,3.5,1.6,3.5,3.7v6.8H94.2"/>
<path style="fill-rule:evenodd;clip-rule:evenodd;fill:#1A1919;" d="M94.2,14.4V8.1c0-1.2-0.4-1.9-1.7-1.9c-1.5,0-2.1,1.6-2.1,2.8
	v5.4h-2.5V0.2h2.5v5.1c0.6-0.9,1.7-1.3,2.8-1.3c2.2,0,3.5,1.6,3.5,3.7v6.8H94.2"/>
</svg>
